<?xml version="1.0" encoding="utf-8"?>
<!-- Generator: Adobe Illustrator 24.0.0, SVG Export Plug-In . SVG Version: 6.00 Build 0)  -->
<svg version="1.1" id="Layer_1" focusable="false" xmlns="http://www.w3.org/2000/svg" xmlns:xlink="http://www.w3.org/1999/xlink"
	 x="0px" y="0px" viewBox="0 0 512 512" style="enable-background:new 0 0 512 512;" xml:space="preserve">
<style type="text/css">
	.st0{opacity:0.4;fill:#87C9EB;enable-background:new    ;}
	.st1{fill:#87C9EB;}
</style>
<g>
	<path class="st0" d="M508.9,394.7c-9.6,41.1-43.5,74-84.7,82.7c-58.9,12.5-111.6-21.7-129.4-72.3c-3.7-10.3,4.4-21.1,15.3-21.1
		h33.8c5.8,0,11.6,2.6,14.5,7.6c13.1,23,42.3,31.1,65.4,18c23-13.1,31.1-42.3,18-65.4c-8.5-15-24.5-24.3-41.7-24.2H283.5
		c-6.5-24.9-20.3-47.2-39.8-64H400C470.5,256,526,321.5,508.9,394.7L508.9,394.7z"/>
	<path class="st1" d="M156.8,256H16c-8.8,0-16,7.2-16,16v32c0,8.8,7.2,16,16,16h142.3c15.9,0,30.8,10.9,33.4,26.6
		c2.9,17.5-8.9,34-26.4,36.9c-15.5,2.6-30.6-6.5-35.6-21.4c-2.1-6.3-8.6-10.1-15.2-10.1H81.6c-9.8,0-17.7,8.8-15.9,18.4
		c9.1,52.2,58.8,87.2,111.1,78.1c51.5-9,86.3-57.4,78.4-109.1C249.1,291,205.5,256,156.8,256L156.8,256z M445.8,107.3
		c-7.6-36.2-36.9-65.5-73.1-73.1c-51.9-11.3-103.2,21.6-114.5,73.5c-0.1,0.7-0.3,1.3-0.4,2c-1.9,9.6,6.1,18.3,15.8,18.3h32.8
		c6.7,0,13.1-3.8,15.2-10.1c5.2-16.9,23.1-26.4,40-21.2c15.6,4.8,25.1,20.6,22,36.7c-2.6,15.7-17.4,26.6-33.4,26.6H16
		c-8.8,0-16,7.2-16,16v32c0,8.8,7.2,16,16,16h336c53.1-0.1,96.1-43.2,96-96.4C448,120.8,447.3,114,445.8,107.3z"/>
</g>
</svg>
